<svg width="14" height="17" viewBox="0 0 14 17" fill="none" xmlns="http://www.w3.org/2000/svg">
<path d="M12.875 4.25H10.9704C10.7222 2.14131 8.92428 0.5 6.75 0.5C4.57572 0.5 2.77784 2.14131 2.52956 4.25H0.625C0.279813 4.25 0 4.52981 0 4.875V15.875C0 16.2202 0.279813 16.5 0.625 16.5H12.875C13.2202 16.5 13.5 16.2202 13.5 15.875V4.875C13.5 4.52981 13.2202 4.25 12.875 4.25ZM6.75 1.75C8.23388 1.75 9.46934 2.83297 9.70809 4.25H3.79191C4.03066 2.83297 5.26612 1.75 6.75 1.75ZM12.25 15.25H1.25V5.5H2.5V7.375C2.5 7.72019 2.77981 8 3.125 8C3.47019 8 3.75 7.72019 3.75 7.375V5.5H9.75V7.375C9.75 7.72019 10.0298 8 10.375 8C10.7202 8 11 7.72019 11 7.375V5.5H12.25V15.25Z" fill="white"/>
</svg>
