<svg width="17" height="15" viewBox="0 0 17 15" fill="none" xmlns="http://www.w3.org/2000/svg">
<path d="M12.5 0.625C10.6452 0.625 9.39637 1.53647 8.75 2.17366C8.10362 1.53647 6.85484 0.625 5 0.625C2.45997 0.625 0.75 2.66562 0.75 5.16412C0.75 8.427 3.85134 10.4813 8.34987 14.2301C8.46575 14.3267 8.60787 14.375 8.75 14.375C8.89213 14.375 9.03425 14.3267 9.15012 14.2301C13.6477 10.4821 16.75 8.42716 16.75 5.16412C16.75 2.66409 15.0385 0.625 12.5 0.625ZM8.75 12.9377C4.61391 9.51591 2 7.69503 2 5.16412C2 3.52966 3.0305 1.875 5 1.875C5.87872 1.875 6.68541 2.13937 7.39762 2.66075C7.92978 3.05031 8.21422 3.44941 8.23212 3.47494C8.34781 3.64997 8.54012 3.75528 8.75 3.75528C8.95988 3.75528 9.15219 3.64997 9.26787 3.47494C9.28578 3.44941 9.57022 3.05031 10.1024 2.66075C10.8146 2.13937 11.6213 1.875 12.5 1.875C14.4695 1.875 15.5 3.52966 15.5 5.16412C15.5 7.69209 12.9 9.50434 8.75 12.9377Z" fill="white"/>
</svg>
