<svg width="17" height="17" viewBox="0 0 17 17" fill="none" xmlns="http://www.w3.org/2000/svg">
<path d="M16.567 15.4331L12.3717 11.2378C13.3103 10.1025 13.875 8.64722 13.875 7.0625C13.875 3.44394 10.9311 0.5 7.3125 0.5C3.69394 0.5 0.75 3.44394 0.75 7.0625C0.75 10.6811 3.69394 13.625 7.3125 13.625C8.89722 13.625 10.3525 13.0603 11.4878 12.1217L15.6831 16.3169C15.9271 16.561 16.3229 16.561 16.567 16.3169C16.811 16.0729 16.811 15.6772 16.567 15.4331ZM7.3125 12.375C4.38319 12.375 2 9.99181 2 7.0625C2 4.13319 4.38319 1.75 7.3125 1.75C10.2418 1.75 12.625 4.13319 12.625 7.0625C12.625 9.99181 10.2418 12.375 7.3125 12.375Z" fill="white"/>
</svg>
