<svg width="17" height="17" viewBox="0 0 17 17" fill="none" xmlns="http://www.w3.org/2000/svg">
<g clip-path="url(#clip0_8003_833)">
<path d="M15.4159 11.8744C14.725 10.6805 13.7315 9.67908 12.5428 8.97864C12.0633 8.69604 11.5564 8.46594 11.0315 8.29016C12.1012 7.50464 12.7969 6.2384 12.7969 4.8125C12.7969 2.43457 10.8623 0.5 8.48441 0.5C6.10648 0.5 4.17191 2.43457 4.17191 4.8125C4.17191 6.2384 4.86771 7.50464 5.93729 8.29016C5.41238 8.46594 4.90555 8.69617 4.42606 8.97864C3.23734 9.6792 2.2438 10.6805 1.55289 11.8745C1.4407 12.0681 1.4407 12.3069 1.55289 12.5006C2.94376 14.9039 5.53836 16.5 8.48441 16.5C11.43 16.5 14.0248 14.9044 15.416 12.5006C15.5281 12.3069 15.5281 12.0681 15.4159 11.8744ZM5.42191 4.8125C5.42191 3.12378 6.79568 1.75 8.48441 1.75C10.1731 1.75 11.5469 3.12378 11.5469 4.8125C11.5469 6.50122 10.1731 7.875 8.48441 7.875C6.79568 7.875 5.42191 6.50122 5.42191 4.8125ZM8.48441 15.25C6.19925 15.25 4.0795 14.1018 2.82755 12.1875C3.39676 11.3171 4.16275 10.5847 5.0607 10.0555C6.0939 9.44678 7.27774 9.125 8.48441 9.125C9.69107 9.125 10.8749 9.44678 11.9081 10.0555C12.8061 10.5847 13.5722 11.3173 14.1414 12.1875C12.891 14.0994 10.7722 15.25 8.48441 15.25Z" fill="white"/>
</g>
<defs>
<clipPath id="clip0_8003_833">
<rect width="16" height="16" fill="white" transform="translate(0.5 0.5)"/>
</clipPath>
</defs>
</svg>
